<svg width="470" height="214" viewBox="0 0 470 214" fill="none" xmlns="http://www.w3.org/2000/svg">
<g clip-path="url(#clip0_386_989)">
<path d="M144.764 129.371L145.075 129.48L145.256 129.875L140.945 136.97C137.598 141.8 132.322 145.454 126.557 146.512L126.04 146.25C126.067 145.445 127.241 145.223 127.934 144.909C134.671 141.856 139.984 134.809 144.764 129.371Z" fill="white"/>
<path d="M469.259 0H469.722C470.204 1.30489 470.004 2.89841 470.005 4.28377L470.014 12.6911L470.029 38.9752L470.036 157.868L470.016 198.496L470.007 207.358C470.006 208.179 470.208 209.611 469.867 210.31L469.626 210.715C469.493 210.963 469.37 211.287 469.161 211.475C469.847 210.22 469.51 207.576 469.508 206.137L469.513 195.186L469.532 153.342L469.521 40.7168L469.516 12.8143L469.512 4.94828C469.507 3.31741 469.609 1.59926 469.259 0Z" fill="white"/>
<path d="M126.43 30.1748C131.2 30.3596 135.498 30.5815 140.023 32.2285C144.113 33.7169 149.217 36.4886 151.121 40.625L150.875 41.2385C150.033 41.029 149.495 40.3534 148.884 39.7798C147.901 38.8568 145.826 37.1092 144.501 36.9199C143.743 36.8117 143.217 36.1588 142.373 36.25C143.03 37.0616 144.711 37.8246 145.625 38.4173C149.857 41.1615 153.605 44.624 155.814 49.25L155.5 49.5504L154.829 49.0338C153.124 47.3673 151.248 45.2978 149.251 43.9988C147.901 43.12 146.374 42.449 145 41.6062C144.252 41.1476 143.342 40.4266 142.521 40.166L131.001 35.7488C129.976 35.2613 128.963 35.1726 127.881 34.8852C125.317 34.2038 122.846 33.6682 120.375 32.6639C120.626 32.5599 120.876 32.4724 121.143 32.4181C123.332 31.9726 126.726 32.8047 129.053 32.9408C129.794 32.9842 131.956 32.8515 132.483 33.2557C132.904 33.5781 133.554 33.247 134.123 33.625C134.614 33.6422 135.023 33.621 135.501 33.5012L135.375 33.3725C133.955 33.1367 132.623 32.3298 131.268 31.8322C129.639 31.2337 128.039 30.9022 126.43 30.1748Z" fill="white"/>
<path d="M109.338 52.9492C110.187 53.7222 110.317 67.996 110.38 70.3998C110.395 70.9432 110.252 73.1156 110.46 73.4984C110.511 73.5921 111.67 74.108 111.85 74.2249C113.48 75.2834 114.959 76.5715 116.499 77.7512C117.156 78.2552 118.427 79.1135 118.743 79.8739C118.952 80.3757 119.538 80.6952 119.873 81.125C120.184 81.5257 120.322 82.0347 120.63 82.4359C120.851 82.7236 121.027 82.99 121.185 83.3191C123.012 87.1356 123.124 91.1164 121.7 95.0621C119.994 99.7902 115.003 104.924 110.43 107.03L110.311 107.084C109.92 108.138 110.082 109.946 110.044 111.095C109.935 114.359 109.955 117.703 109.541 120.94L109.25 121.442L108.99 121.25L108.524 108.866C108.519 108.357 108.331 106.731 108.507 106.322C108.653 105.982 109.518 105.375 109.82 105.129C111.268 103.951 112.769 102.799 114.125 101.516C115.403 100.305 116.506 98.8231 117.56 97.4142C119.454 94.8841 120.454 91.7217 119.94 88.5494C118.946 82.416 112.986 78.3392 108.315 74.9882L108.639 59.5978C108.734 57.529 108.654 54.9017 109.338 52.9492Z" fill="white"/>
<path d="M256.369 116.059C256.738 116.291 257.078 116.555 257.299 116.94C258.406 118.877 259.179 121.214 260.049 123.276L266.237 138.107C265.074 138.029 263.912 138.173 262.754 138.278L261.131 134.701L257.187 134.744L252.692 134.676L251.438 138.022C250.537 138.43 248.701 138.305 247.669 138.358C249.044 134.035 251.043 129.662 252.834 125.482C253.898 123 256.62 118.806 256.369 116.059ZM256.696 125.373C256.426 126.477 256.141 127.523 255.669 128.563C255.352 129.262 254.659 130.26 254.582 130.999L256.687 130.733C257.325 130.757 258.682 130.99 259.125 130.591C258.635 129.458 257.605 125.871 256.696 125.373Z" fill="white"/>
<path d="M296.55 116.125C297.135 116.079 297.723 116.125 298.306 116.174C302.45 116.521 304.681 118.365 307.243 121.399C306.819 122.261 305.063 123.37 304.277 124.007C303.46 122.828 302.711 121.605 301.423 120.899L300.301 120.322C298.421 119.533 296.421 119.739 294.575 120.508C292.802 121.247 291.631 122.728 290.923 124.49C290.251 126.159 290.241 128.248 290.962 129.907C291.857 131.967 293.303 133.315 295.397 134.121C297.118 134.784 298.872 134.499 300.518 133.748C301.239 133.419 302.321 132.892 302.606 132.119C303.518 131.685 303.993 130.688 304.51 129.862C305.652 130.551 306.689 130.954 307.947 131.381L306.833 133.113C305.121 135.592 302.106 137.573 299.146 138.102C296.326 138.606 293.45 137.643 291.147 136.022C288.464 134.133 287.188 131.412 286.648 128.245C286.209 125.673 287.403 122.281 288.912 120.185C290.755 117.626 293.564 116.6 296.55 116.125Z" fill="white"/>
<path d="M329.091 116.125L332.03 116.134C332.034 117.732 331.594 122.744 332.618 123.875L333.375 123.877C333.996 122.64 335.482 122.387 336.408 121.486C337.793 120.139 338.743 118.474 340.052 117.074C341.355 115.68 343.667 116.033 345.493 115.969L336.577 127.845L340.476 131.798C341.219 132.562 342.155 133.339 342.591 134.327C344.072 135.139 345.593 137.086 346.881 138.268L343.245 138.227C342.939 138.229 342.159 138.324 341.918 138.235C341.508 138.083 340.423 136.808 340.041 136.445C338.169 134.664 336.376 132.856 334.25 131.373L333.625 131.873L332.971 131.024L332.877 130.875L332.499 131.499C331.73 132.67 332.044 136.647 332.018 138.183L328.37 138.241L328.266 123.902C328.273 121.46 328.088 118.778 328.486 116.375L329.091 116.125Z" fill="white"/>
<path d="M210.057 116.268L216.521 116.21C219.175 116.213 222.123 116.013 224.225 117.986C225.733 119.402 226.62 121.037 226.679 123.125C226.734 125.073 226.135 126.695 224.799 128.119C223.022 130.014 221.254 130.667 218.687 130.738L213.686 130.733L213.645 138.211L210.078 138.256L210.057 116.268ZM213.706 119.971C213.805 122.316 213.966 124.668 213.728 127.008C215.849 126.996 219.824 127.481 221.538 126.129L221.632 125.879C222.394 125.218 222.833 124.496 222.929 123.47C223.014 122.552 222.575 121.755 221.99 121.083C221.253 120.238 220.561 120.079 219.484 120.027L213.706 119.971Z" fill="white"/>
<path d="M178.343 137.199L178.717 137.875C178.294 141.972 177.389 145.899 174.766 149.177C170.019 155.11 162.355 158.472 155.643 161.652L140.101 169.106C134.633 171.877 129.3 175.011 124.184 178.383C117.466 182.812 110.947 188.104 105.448 193.983L99.1427 201.298L98.8408 201.043C101.801 195.557 105.966 190.597 110.355 186.199C121.691 174.839 135.309 167.129 149.959 160.82C157.896 157.402 167.977 154.078 173.842 147.538C175.717 145.447 176.827 143.039 177.408 140.305C177.622 139.3 177.707 138.245 178.249 137.349L178.343 137.199Z" fill="white"/>
<path d="M311.149 65.0234L318.262 65.0344L318.245 93.2317L318.227 100.777C318.222 102.529 318.464 104.683 317.638 106.274L311.59 106.402L311.507 77.782L311.532 69.7539C311.533 68.5082 311.673 67.0923 311.513 65.875C311.471 65.5589 311.322 65.286 311.149 65.0234Z" fill="white"/>
<path d="M241.157 65.0331L248.371 65.0281L248.392 92.4715L248.32 101.728C248.287 103.2 248.438 104.862 247.837 106.23L241.624 106.335L241.504 78.2174C241.518 74.2299 241.904 69.8191 241.515 65.8751C241.485 65.571 241.321 65.2839 241.157 65.0331Z" fill="white"/>
<path d="M469.161 211.475C469.37 211.287 469.493 210.963 469.626 210.715C470.019 211.527 470.195 212.51 469.896 213.39C469.821 213.612 469.698 213.81 469.563 214H0V213.288L15.7926 213.171L43.6604 213.165L129.536 213.157L391.464 213.169L451.979 213.23L464.913 213.252C466.083 213.255 468.14 213.551 469.207 213.192C469.534 212.461 469.358 212.233 469.161 211.475Z" fill="white"/>
<path d="M195.147 65.2349L202.028 65.2648L212.795 90.1459C213.532 87.6653 214.752 85.4914 215.747 83.1249L223.354 65.27L230.246 65.187C229.002 67.5881 228.004 70.1164 227.003 72.6262C226.457 73.9958 225.892 75.9883 224.827 77.0092C225.022 78.2132 222.059 84.2494 221.44 85.6607L215.85 98.9036C214.736 101.562 213.467 103.927 212.717 106.733L195.147 65.2349Z" fill="white"/>
<path d="M389.69 64.9351L390.066 65.2714C391.007 66.0967 391.245 67.4036 391.671 68.5439L393.355 72.6202L400.425 89.4588C402.789 95.0096 405.285 100.518 407.284 106.212C406.886 106.418 406.087 106.306 405.638 106.305L400.85 106.353L398.16 99.6693L389.437 99.7542C387.131 99.7784 384.74 99.9328 382.448 99.6534C381.923 100.109 381.682 101.414 381.41 102.079L379.462 106.342L372.965 106.474L385.883 75.3354C387.071 72.4627 388.572 69.7057 389.56 66.7436C389.759 66.1491 389.783 65.5538 389.69 64.9351ZM389.921 81.8747C388.847 85.635 386.97 89.1354 385.463 92.7315L390.687 92.8287C392.007 92.8207 393.453 92.7068 394.75 92.9304L395.026 92.625C393.753 90.3381 392.776 87.7935 391.77 85.3787C391.453 84.6171 390.72 82.1531 390.005 81.8946L389.921 81.8747Z" fill="white"/>
<path d="M19.5153 11.1035L30.2549 11.2315L65.257 11.632L81.7995 11.6485C87.3496 11.6157 93.2452 11.3212 98.6941 12.5005C95.8934 13.1637 92.7113 13.2682 89.8394 13.3522L70.4819 13.2723L43.5154 13.5383L28.7406 13.7449C27.0192 13.7746 24.8234 14.1638 23.1663 13.8125C22.9068 13.7575 22.7613 13.8885 22.5271 14.0001C21.9354 18.252 22.2944 23.1278 22.2631 27.4383L21.9085 50.203L20.3265 130.732L20.3313 134.125C20.389 137.144 20.3929 140.143 21.4681 143.008C24.352 150.693 32.0168 154.382 38.88 157.823L50.1801 163.335C53.0543 164.694 56.577 166.029 58.9065 168.267C56.2209 167.385 53.6733 165.894 51.0795 164.762L35.8692 158.005C31.3455 155.846 26.7588 153.671 23.2798 149.936C20.097 146.52 18.7982 142.822 18.1069 138.261C17.1997 132.274 17.5014 125.844 17.4964 119.791L17.6389 92.6554L19.5153 11.1035Z" fill="white"/>
<path d="M429.856 65.3749C434.352 65.0413 439.326 64.8115 443.246 67.3573C446.279 69.3269 447.746 72.7633 448.431 76.1695L447.97 76.203C447.433 76.2253 441.717 76.4089 441.631 76.3355C441.529 76.2493 441.303 75.4977 441.216 75.3019C440.879 74.5383 440.421 73.7931 439.786 73.2395C438.206 71.8612 436.168 72.2355 434.25 72.1913C433.063 72.164 431.853 71.9768 430.667 72.0784C429.208 72.2034 427.615 72.6427 426.651 73.8207C425.452 75.2869 425.4 76.5918 425.561 78.375C426.094 79.3618 427.23 80.949 428.222 81.4782C428.675 81.7195 430.31 81.6177 430.874 81.6164C435.698 81.6057 440.849 80.9757 445.161 83.5512C449.268 86.0048 450.46 89.4099 451.579 93.8787C450.879 97.1638 450.105 100.081 447.652 102.502C445.843 104.288 443.593 105.841 441.066 106.353C438.949 106.782 436.118 106.499 433.937 106.493C429.3 106.529 425.038 106.836 421.318 103.485C418.388 100.845 417.055 98.2262 416.866 94.2808L421.5 94.2527C421.748 94.2541 423.709 94.2188 423.829 94.3178C423.894 94.3713 424.239 95.9577 424.338 96.1968C424.681 97.0212 425.235 97.857 425.875 98.4811C426.304 98.8996 426.873 99.3361 427.467 99.473C428.549 99.7223 430.058 99.5522 431.203 99.5594L440.755 99.48C442.15 98.4682 443.516 97.2185 444.053 95.524C444.452 94.2657 444.281 92.7904 443.65 91.625C443.159 90.7169 441.828 89.331 440.941 88.8013C440.241 88.3835 438.08 88.6279 437.173 88.6249C433.624 88.6132 429.714 88.9794 426.316 87.9541C425.13 87.596 424.096 87.0054 423.125 86.2379C420.719 84.3359 418.83 81.1769 418.533 78.087C418.261 75.27 419.257 71.8026 421.106 69.6188C423.505 66.7862 426.215 65.6641 429.856 65.3749Z" fill="white"/>
<path d="M276.845 65.3743C280.31 64.9142 283.85 65.3442 287.159 66.4297C293.022 68.3528 296.713 72.4346 299.414 77.8014L293.28 77.7597C292.946 77.7583 291.772 77.8616 291.55 77.7524C291.343 77.6504 290.908 77.0674 290.721 76.8738C289.969 76.0951 289.191 75.2962 288.318 74.6519C285.64 72.6737 281.849 71.7658 278.555 72.3063C274.555 72.9626 271.221 75.0984 268.906 78.4133C266.781 81.455 266.336 85.038 267.015 88.6383C267.675 92.1398 270.367 95.2462 273.229 97.2223C275.962 99.1099 279.415 99.7527 282.68 99.1242C287.241 98.2464 289.92 95.7394 292.446 91.9493L278.692 91.8871C278.715 90.6528 278.991 88.5647 278.342 87.5135L278.248 87.3707C278.465 86.9979 278.747 86.6955 279.032 86.3749L299.23 86.4556L299.071 106.26L293.772 106.44C293.708 104.661 293.618 103.22 293.862 101.423C291.403 103.342 288.401 105.036 285.355 105.821C280.193 107.152 274.298 106.173 269.752 103.472C264.86 100.565 261.484 95.692 260.106 90.2052C258.709 84.6448 260.207 79.1191 263.096 74.3434C266.259 69.1154 271.155 66.782 276.845 65.3743Z" fill="white"/>
<path d="M93.3049 32.7207L93.8746 33.0847C93.9614 33.4007 94.0668 33.7094 94.2206 34C94.8384 35.1673 96.5883 37.1364 97.9759 37.3481C100.797 37.7786 104.741 36.6182 107.61 36.1041C108.498 35.9448 109.607 35.5888 110.487 35.875C110.502 36.7378 110.628 37.412 110.22 38.1916C106.42 38.8745 101.243 40.3134 97.4729 39.5958C95.3258 39.1871 93.6803 37.8588 92.4713 36.1008C90.8095 37.1042 89.14 37.9768 87.3534 38.7401C85.2215 39.6508 82.8128 40.5126 81.0568 42.0761C79.5086 43.4547 79.3984 45.3001 79.048 47.2048C78.5443 49.9431 77.7854 52.3725 75.4446 54.0792C72.254 56.4054 68.329 58.2449 64.8219 60.0757L58.3785 63.5226C57.3429 64.1082 56.0454 64.746 55.5053 65.8667C54.9655 66.9867 55.701 68.6809 56.0581 69.7933C52.5217 71.3587 48.8003 72.8667 45.4386 74.776C41.2283 77.1672 37.4352 80.1937 33.6049 83.1338C35.1157 85.9051 36.6168 88.8036 38.5078 91.3337C40.1249 93.4972 41.6735 95.0272 44.2003 96.0665C44.5838 96.2242 45.2727 96.6111 45.6667 96.6503C46.0237 96.6859 47.5316 95.9156 47.9451 95.756C49.9188 94.9939 52.0037 94.4654 53.9352 93.6066C56.9998 92.2439 60.3662 88.8702 63.8688 89.404C66.2856 89.7722 68.8012 92.5372 70.1998 94.4275C71.3231 95.9456 72.3396 97.1054 71.9836 99.125C71.3402 102.775 66.0854 104.222 62.9855 104.768C61.6646 105.001 60.3053 104.792 59.1511 105.587C58.276 106.19 57.4112 106.769 56.6995 107.571C56.4351 107.869 55.7913 108.726 55.8372 109.129C55.9793 110.376 57.8318 112.019 58.8147 112.787C60.2398 113.9 62.8111 114.865 64.6246 114.639C65.9402 113.462 66.3963 110.631 67.3996 108.998C69.0454 106.319 70.9049 105.372 73.9009 104.651C77.4573 103.796 81.5873 103.438 84.836 105.469C86.4746 106.493 87.8855 108.06 88.3097 109.992C91.6394 125.148 75.6341 127.219 66.2208 133.185C63.137 135.139 60.5802 137.712 58.6153 140.774C60.6496 140.271 62.4491 139.647 64.5504 139.346C67.1318 138.976 70.4999 139.257 72.9 138.372C74.4677 137.794 75.9517 136.546 77.1817 135.441C77.8779 134.815 78.6224 134.13 79.1602 133.361C79.6227 132.698 80.0026 131.85 80.5924 131.298C80.7715 131.13 80.8957 130.959 81.026 130.751C81.9284 129.31 83.3291 127.827 84.4464 126.506C84.1652 130.502 81.8222 134.174 79.7387 137.479C80.7808 136.988 81.5383 136.017 82.503 135.562C83.2212 135.224 83.8721 134.457 84.4526 133.902C86.8397 131.618 88.2486 129.003 90.3614 126.538C90.4569 128.53 88.7901 132.725 87.6567 134.388C86.6789 135.822 85.4112 136.975 84.4589 138.456C87.7713 137.071 91.0592 133.329 93.1993 130.523C93.8315 129.694 94.2234 128.638 94.9996 127.939L95.3746 128.036L95.3484 128.565C94.1449 132.601 92.1324 136.234 89.2484 139.304C89.7042 139.546 91.0527 139.22 91.6308 139.219C93.4609 139.214 95.3434 139.409 97.1767 139.498L98.2709 144.781C98.4332 144.757 98.5315 144.726 98.6528 144.611C101.222 142.169 104.657 140.221 107.826 138.656C108.669 138.24 109.685 137.597 110.625 137.554C110.709 137.689 110.796 137.846 110.823 138.004C110.959 138.82 110.664 139.762 110.074 140.321C109.125 141.221 107.37 141.942 106.208 142.643C102.497 144.882 99.2202 147.743 96.6431 151.234L94.9681 142.461C91.6058 142.739 87.8692 142.86 84.5005 142.642C82.1439 142.49 79.8414 142.022 77.4996 141.83C72.0964 141.386 66.3698 141.581 61.1246 143.053C58.5801 143.768 56.1913 144.921 53.7955 146.016C54.297 144 54.7872 141.909 55.7335 140.047C59.8097 132.024 68.553 128.608 76.2087 125.019C78.9334 123.741 81.855 122.369 83.7974 119.978C85.7287 117.6 86.3099 114.862 86.0152 111.875C85.9648 111.364 85.8491 110.982 85.6542 110.505C85.1315 109.227 84.0808 107.758 82.7691 107.215L82.6246 107.157C80.4363 106.263 77.0014 106.628 74.739 107.163C69.3485 108.438 68.8124 113.086 66.2586 117.172C64.0103 117.705 61.1776 117.133 59.1709 116.077C56.7751 114.815 54.1143 112.848 53.3201 110.126C52.7757 108.26 54.1574 106.088 55.5371 104.887C56.0297 104.458 56.7678 104.087 57.0665 103.506C57.2547 103.14 56.3658 102.286 56.2031 101.75C56.2862 101.69 56.5426 101.459 56.6246 101.444C56.842 101.405 57.67 101.712 57.9579 101.781C60.2378 102.331 61.8754 102.495 64.1667 101.817C65.5399 101.41 68.6275 100.298 69.32 98.939C69.5125 98.5613 69.4606 98.2822 69.3287 97.8889C68.8998 96.611 65.6522 92.9348 64.4423 92.337C61.9712 91.1159 58.1432 94.5835 55.9992 95.627C54.0065 96.597 51.947 97.3857 49.8649 98.1379C50.6876 98.8143 51.9853 99.7919 52.2134 100.875C51.3656 101.091 50.6817 100.802 49.8463 100.576C46.3739 99.6338 42.4322 98.478 39.5271 96.2648C35.6146 93.2842 33.095 87.7077 30.6865 83.5013C32.3455 80.2012 34.9689 78.5451 37.9238 76.4836C42.6021 73.2196 47.1313 70.6407 52.4736 68.625C52.9705 67.8327 52.5289 67.3618 52.5515 66.5C52.5773 65.5177 53.1035 64.4565 53.6935 63.6923C55.3651 61.527 58.5285 60.1804 60.9283 58.9544L69.8898 54.3162C71.9704 53.2325 74.6807 51.9917 75.8413 49.8598C76.8854 47.942 76.3416 45.315 77.0844 43.1489C78.5392 38.9068 83.9802 36.9299 87.6786 35.3457L93.3049 32.7207Z" fill="white"/>
<path d="M329.921 65.0767L340.759 65.1195C343.596 65.1607 346.347 65.1414 349.114 65.8361C354.254 67.1264 359.153 70.457 361.887 75.0844C364.688 79.8249 365.375 85.7273 363.978 91.0282C363.173 94.0823 361.122 98.8518 358.321 100.481C358.253 100.786 358.026 101.05 357.806 101.264C352.957 105.973 346.734 106.263 340.433 106.328L330.096 106.339C330.321 104.522 330.172 102.614 330.145 100.783L330.072 91.8908L330.068 73.0523L330.085 67.8587C330.087 67.0255 330.213 65.9692 329.956 65.1753L329.921 65.0767ZM336.347 71.9603L336.435 72.1285C337.232 73.7409 336.781 77.2654 336.785 79.0889C336.8 85.769 337.13 92.6618 336.732 99.3106C342.31 99.526 348.462 100.274 352.922 96.173C353.226 95.8933 353.474 95.7218 353.597 95.3248C355.731 94.116 356.881 91.2528 357.511 88.9927C358.426 85.7133 357.732 81.8658 356.057 78.9374C354.191 75.674 351.148 73.2663 347.486 72.3059C343.946 71.3776 339.966 72.168 336.347 71.9603Z" fill="white"/>
<path d="M117.657 35.1076C124.797 34.5059 132.278 37.3943 138.832 39.8967C140.968 40.7122 149.223 45.3179 149.992 47.1211C150.213 47.6392 150.844 48.035 151.211 48.4804L156.375 54.3105C151.969 53.3679 147.47 50.8859 142.83 51.6893C141.547 51.9114 139.978 52.2384 139.208 53.3954C138.718 54.1309 138.596 54.9 138.746 55.7501C138.93 56.7986 139.55 57.5426 140.367 58.1941C141.669 59.232 143.309 59.8574 144.767 60.6415C147.54 62.1326 150.491 63.8498 152.915 65.8632C160.717 72.3434 165.609 79.9137 166.559 90.1642C164.752 88.759 163.463 86.7615 161.734 85.2424C160.325 84.0053 158.742 82.6795 157.018 81.908C154.151 80.6249 151.007 80.7999 147.958 80.9997L147.857 81.1822C148.887 82.5271 149.67 84.0796 150.574 85.5129C153.81 90.6411 157.04 96.0907 158.212 102.125C159.919 110.916 154.766 121.079 149.979 128.204L149.581 127.718C149.871 124.557 149.415 120.391 147.184 117.952C145.961 116.615 144.555 115.52 143.456 114.06L142.859 118.532C141.491 125.84 138.744 133.525 132.357 137.976C130.33 139.39 127.996 140.215 125.955 141.608C126.513 139.815 126.966 138.151 127.227 136.285C127.772 132.391 125.287 129.801 123.112 126.958C123.064 128.902 123.043 130.749 122.376 132.604C120.978 136.495 116.683 137.617 113.306 139.209L113.311 118.552C113.283 115.106 112.84 111.287 113.106 107.875C113.135 107.507 113.371 106.903 113.625 106.627C114.371 105.817 115.75 105.121 116.657 104.475C119.977 102.108 122.52 99.2125 123.879 95.334C124.991 92.1599 125.087 88.5122 124.062 85.3044C123.717 84.2246 123.128 83.2867 122.751 82.2489C122.391 81.2538 121.506 80.6456 121.068 79.7403C120.699 78.9763 119.962 78.4739 119.305 77.9676C118.521 77.3649 117.847 76.6237 117 76.0998C116.082 75.5321 114.924 75.0281 114.125 74.2991C113.497 73.7263 113.239 72.8185 113.153 72.0001C113.025 70.7763 113.161 69.404 113.171 68.1647L113.241 60.3511L113.203 35.5335L117.657 35.1076ZM115.82 37.7787L115.846 71.9524C121.044 74.9857 125.31 78.8009 126.893 84.8414C128.135 89.5838 127.48 95.5719 124.942 99.7984C123.501 102.199 121.603 104.417 119.344 106.086C118.76 106.518 116.167 107.689 115.915 108.101C115.637 108.556 115.966 112.187 115.971 112.962L116.093 134.72L116.5 134.918C117.714 134.372 118.512 133.698 119.253 132.602C120.33 131.01 120.303 128.736 120.503 126.875C120.705 124.982 121.016 123.062 121.089 121.161C123.756 124.083 127.145 127.146 129.058 130.615C129.57 131.545 129.887 132.591 130.079 133.633C130.166 134.099 130.188 135.691 130.468 135.921C132.245 134.255 134.356 132.463 135.828 130.525C140.038 124.983 141.089 116.591 141.53 109.826L144.595 112.218C147.1 114.143 149.288 116.217 150.878 118.985C151.255 119.642 151.368 120.374 151.707 121.037C152.607 118.367 153.958 115.924 154.894 113.28C157.033 107.234 155.911 100.4 153.126 94.7869L143.428 78.6768C146.968 78.4161 150.907 77.825 154.41 78.4937C157.036 78.9951 159.368 80.1559 161.693 81.4292C158.695 73.5397 152.405 67.6201 145.094 63.616C142.811 62.3652 139.972 61.2975 138.127 59.4461C136.333 57.6452 135.78 55.071 136.808 52.7345C137.568 51.0061 138.968 50.0137 140.688 49.363C142.644 48.6234 144.444 48.9223 146.413 48.6208C142.969 45.2526 138.456 43.0085 134.012 41.2581C128.537 39.1018 123.684 37.6834 117.751 37.7502L115.82 37.7787Z" fill="white"/>
</g>
<defs>
<clipPath id="clip0_386_989">
<rect width="470" height="214" fill="white"/>
</clipPath>
</defs>
</svg>
